<?xml version="1.0" encoding="utf-8"?>
<!-- Generator: Adobe Illustrator 14.0.0, SVG Export Plug-In . SVG Version: 6.00 Build 43363)  -->
<!DOCTYPE svg PUBLIC "-//W3C//DTD SVG 1.1//EN" "http://www.w3.org/Graphics/SVG/1.1/DTD/svg11.dtd">
<svg version="1.1" id="Layer_1" xmlns="http://www.w3.org/2000/svg" xmlns:xlink="http://www.w3.org/1999/xlink" x="0px" y="0px"
	 width="300px" height="365px" viewBox="0 0 300 365" enable-background="new 0 0 300 365" xml:space="preserve">
<path fill="#B4D676" d="M293.477,111.167c0.488-5.055,3.414-11.327,0.594-16.496c-2.818-5.169-18.148-11.832-18.148-11.832
	c-104.469-13.001-163.029,17.501-200.34,37.053c-37.307,19.552-47.189,31.448-50.689,34.448s-7-6.159-7-19
	c0-3.831-1.652-6.526-3.963-8.432C24.242,109.674,52.527,59.173,62.262,8.611c0.064-0.255,0.66-2.768-0.199-3.99
	c-0.277-0.392-0.68-0.624-1.16-0.67c-0.383-0.037-0.709-0.063-0.992-0.063c-1.592,0-2.029,0.933-2.408,3.024
	c-9.193,50.714-35.057,101.58-44.625,119.202c-4.588-3.101-10.93-3.652-12.877-3.75v148.892c0.596,1.291,1.417,3.082,2.555,5.585
	c5.479,12.049,3.248,26.758,7.771,39.297c2.408,6.678,4.869,13.139,4.945,20.326c0.057,5.23,0.732,10.914,6.008,13.584
	c5.461,2.762,10.143-1.674,15.396-2.529c5.324-0.869,10.957,0.223,16.098,1.627c0.855,0.234,8.211,3.445,8.783,3.029
	c7.412-5.375,16.016-10.346,25.045-12.221c8.729-1.811,19.131-0.279,24.936,7.09c4.338,5.506,6.484,15.066,14.307,17.203
	c5.586,1.525,8.471-1.504,8.488-6.816c0.035-10.791-7.012-20.379-6.717-30.852c0.338-12.01,15.395-21.086,10.314-33.664
	c-2.367-5.861-9.564-10.002-14.373-13.74c-7.746-6.027-4.756-22.049,6.377-21.408c7.084,0.408,10.869,8.338,15.314,12.758
	c5.271,5.246,22.828,15.156,28.977,6.316c7.502-10.787-10.449-20.832-12.451-30.535c-1.99-9.648,6.564-11.107,13.875-11.16
	c4.73-0.035,9.299-1.402,13.742-2.971c0,0,0.666-4.166,5.133-9.955c4.465-5.787,10.652-9.799,10.652-9.799
	s-1.451-11.246,0.393-18.26c1.844-7.012,10.488-11.32,10.488-11.32s3.334-10,9.137-16.654c5.801-6.654,16.531-11.012,16.531-11.012
	c2.166-4.833,9.166-6.833,17.773-10.445c8.605-3.611,17.893,1.111,26.393,2.111s7.5-3,8-7S292.986,116.222,293.477,111.167z"/>
</svg>
