<?xml version="1.0" encoding="UTF-8" standalone="no"?>
<!-- Created with Inkscape (http://www.inkscape.org/) -->

<svg
   xmlns:dc="http://purl.org/dc/elements/1.1/"
   xmlns:cc="http://creativecommons.org/ns#"
   xmlns:rdf="http://www.w3.org/1999/02/22-rdf-syntax-ns#"
   xmlns:svg="http://www.w3.org/2000/svg"
   xmlns="http://www.w3.org/2000/svg"
   version="1.1"
   width="100"
   height="100"
   id="svg2">
  <defs
     id="defs4" />
  <metadata
     id="metadata7">
    <rdf:RDF>
      <cc:Work
         rdf:about="">
        <dc:format>image/svg+xml</dc:format>
        <dc:type
           rdf:resource="http://purl.org/dc/dcmitype/StillImage" />
        <dc:title></dc:title>
      </cc:Work>
    </rdf:RDF>
  </metadata>

  <g
     id="layer2">
    <path
       d="m 33.256868,37.396282 c -6.890722,0 -12.474871,5.58415 -12.474871,12.474871 0,6.890722 5.584149,12.474872 12.474871,12.474872 0.02477,0 0.04938,1.43e-4 0.07411,0 l 33.6698,0 0.222325,0 c 4.93e-4,-9e-6 -4.93e-4,-0.02469 0,-0.0247 6.78538,-0.121673 12.252546,-5.635681 12.252546,-12.450169 0,-6.890721 -5.584149,-12.474871 -12.474871,-12.474871 -6.890721,0 -12.474871,5.58415 -12.474871,12.474871 0,3.863375 1.739097,7.32129 4.495894,9.609357 l -17.810657,0 c 2.757039,-2.288065 4.520597,-5.745785 4.520597,-9.609357 0,-6.890721 -5.58415,-12.474871 -12.474871,-12.474871 z m 0,2.865515 c 5.306583,0 9.634059,4.302771 9.634059,9.609356 0,5.281773 -4.287367,9.569379 -9.559951,9.609357 -0.02477,1.88e-4 -0.0493,0 -0.07411,0 -5.306585,0 -9.609356,-4.302771 -9.609356,-9.609357 0,-5.306585 4.302771,-9.609356 9.609356,-9.609356 z m 33.743908,0 c 5.306584,0 9.634059,4.302771 9.634059,9.609356 0,5.232148 -4.207321,9.490976 -9.411734,9.609357 l -0.222325,0 c -5.306585,0 -9.609356,-4.302771 -9.609356,-9.609357 0,-5.306585 4.302771,-9.609356 9.609356,-9.609356 z"
       id="path3039"
       fill = "#fe4f00" />
  </g>
</svg>
